<svg width="228" height="229" viewBox="0 0 228 229" fill="none" xmlns="http://www.w3.org/2000/svg">
<path d="M83.5028 228.011C95.2706 228.011 104.81 218.472 104.81 206.704C104.81 194.936 95.2706 185.396 83.5028 185.396C71.735 185.396 62.1953 194.936 62.1953 206.704C62.1953 218.472 71.735 228.011 83.5028 228.011Z" fill="white"/>
<path d="M144.479 228.012C156.247 228.012 165.787 218.472 165.787 206.704C165.787 194.936 156.247 185.396 144.479 185.396C132.712 185.396 123.172 194.936 123.172 206.704C123.172 218.472 132.712 228.012 144.479 228.012Z" fill="white"/>
<path d="M83.5028 42.6158C95.2706 42.6158 104.81 33.076 104.81 21.3079C104.81 9.53988 95.2706 0 83.5028 0C71.735 0 62.1953 9.53988 62.1953 21.3079C62.1953 33.076 71.735 42.6158 83.5028 42.6158Z" fill="white"/>
<path d="M144.479 42.6158C156.247 42.6158 165.787 33.076 165.787 21.3079C165.787 9.53988 156.247 0 144.479 0C132.712 0 123.172 9.53988 123.172 21.3079C123.172 33.076 132.712 42.6158 144.479 42.6158Z" fill="white"/>
<path d="M21.3075 104.81C33.0753 104.81 42.615 95.2703 42.615 83.5023C42.615 71.7342 33.0753 62.1943 21.3075 62.1943C9.53969 62.1943 0 71.7342 0 83.5023C0 95.2703 9.53969 104.81 21.3075 104.81Z" fill="white"/>
<path d="M21.3075 165.793C33.0753 165.793 42.615 156.253 42.615 144.485C42.615 132.717 33.0753 123.177 21.3075 123.177C9.53969 123.177 0 132.717 0 144.485C0 156.253 9.53969 165.793 21.3075 165.793Z" fill="white"/>
<path d="M206.698 104.81C218.466 104.81 228.006 95.2703 228.006 83.5023C228.006 71.7342 218.466 62.1943 206.698 62.1943C194.93 62.1943 185.391 71.7342 185.391 83.5023C185.391 95.2703 194.93 104.81 206.698 104.81Z" fill="white"/>
<path d="M206.698 165.793C218.466 165.793 228.006 156.253 228.006 144.485C228.006 132.717 218.466 123.177 206.698 123.177C194.93 123.177 185.391 132.717 185.391 144.485C185.391 156.253 194.93 165.793 206.698 165.793Z" fill="white"/>
</svg>
